Ruda-Regular.ufo
<glyph name="numbersign" format="2">
  <advance width="546"/>
  <unicode hex="0023"/>
  <outline>
    <contour>
      <point x="76" y="0" type="line"/>
      <point x="149" y="0" type="line"/>
      <point x="180" y="199" type="line"/>
      <point x="308" y="199" type="line"/>
      <point x="277" y="0" type="line"/>
      <point x="349" y="0" type="line"/>
      <point x="380" y="199" type="line"/>
      <point x="474" y="199" type="line"/>
      <point x="474" y="270" type="line"/>
      <point x="391" y="270" type="line"/>
      <point x="415" y="421" type="line"/>
      <point x="509" y="421" type="line"/>
      <point x="509" y="493" type="line"/>
      <point x="426" y="493" type="line"/>
      <point x="458" y="695" type="line"/>
      <point x="385" y="695" type="line"/>
      <point x="353" y="493" type="line"/>
      <point x="225" y="493" type="line"/>
      <point x="257" y="695" type="line"/>
      <point x="185" y="695" type="line"/>
      <point x="153" y="493" type="line"/>
      <point x="59" y="493" type="line"/>
      <point x="59" y="421" type="line"/>
      <point x="142" y="421" type="line"/>
      <point x="118" y="270" type="line"/>
      <point x="25" y="270" type="line"/>
      <point x="25" y="199" type="line"/>
      <point x="107" y="199" type="line"/>
    </contour>
    <contour>
      <point x="191" y="270" type="line"/>
      <point x="214" y="421" type="line"/>
      <point x="342" y="421" type="line"/>
      <point x="319" y="270" type="line"/>
    </contour>
  </outline>
</glyph>
<glyph name="C" format="2">
  <advance width="583"/>
  <unicode hex="0043"/>
  <outline>
    <contour>
      <point x="312" y="-14" type="curve" smooth="yes"/>
      <point x="440" y="-14"/>
      <point x="526" y="47"/>
      <point x="526" y="47" type="curve"/>
      <point x="497" y="113" type="line" smooth="yes"/>
      <point x="497" y="113"/>
      <point x="403" y="59"/>
      <point x="301" y="59" type="curve" smooth="yes"/>
      <point x="267" y="59"/>
      <point x="241" y="65"/>
      <point x="222" y="84" type="curve" smooth="yes"/>
      <point x="195" y="110"/>
      <point x="161" y="195"/>
      <point x="161" y="337" type="curve" smooth="yes"/>
      <point x="161" y="505"/>
      <point x="185" y="573"/>
      <point x="212" y="606" type="curve" smooth="yes"/>
      <point x="230" y="628"/>
      <point x="268" y="633"/>
      <point x="334" y="633" type="curve" smooth="yes"/>
      <point x="367" y="633"/>
      <point x="464" y="624"/>
      <point x="487" y="621" type="curve"/>
      <point x="497" y="693" type="line"/>
      <point x="464" y="701"/>
      <point x="376" y="709"/>
      <point x="329" y="709" type="curve" smooth="yes"/>
      <point x="182" y="709"/>
      <point x="72" y="645"/>
      <point x="72" y="340" type="curve" smooth="yes"/>
      <point x="72" y="82"/>
      <point x="170" y="-14"/>
    </contour>
  </outline>
</glyph>
<glyph name="J" format="2">
  <advance width="316"/>
  <unicode hex="004A"/>
  <outline>
    <contour>
      <point x="56" y="-13" type="curve" smooth="yes"/>
      <point x="150" y="-13"/>
      <point x="220" y="49"/>
      <point x="220" y="236" type="curve"/>
      <point x="220" y="695" type="line"/>
      <point x="136" y="695" type="line"/>
      <point x="136" y="223" type="line" smooth="yes"/>
      <point x="136" y="74"/>
      <point x="113" y="60"/>
      <point x="72" y="60" type="curve" smooth="yes"/>
      <point x="41" y="60"/>
      <point x="14" y="65"/>
      <point x="2" y="67" type="curve"/>
      <point x="-8" y="-5" type="line"/>
      <point x="2" y="-7"/>
      <point x="28" y="-13"/>
    </contour>
  </outline>
</glyph>
<glyph name="M" format="2">
  <advance width="814"/>
  <unicode hex="004D"/>
  <outline>
    <contour>
      <point x="100" y="0" type="line"/>
      <point x="184" y="0" type="line"/>
      <point x="192" y="611" type="line"/>
      <point x="199" y="611" type="line"/>
      <point x="355" y="163" type="line"/>
      <point x="458" y="163" type="line"/>
      <point x="615" y="611" type="line"/>
      <point x="622" y="611" type="line"/>
      <point x="630" y="0" type="line"/>
      <point x="714" y="0" type="line"/>
      <point x="690" y="695" type="line"/>
      <point x="568" y="695" type="line"/>
      <point x="410" y="242" type="line"/>
      <point x="403" y="242" type="line"/>
      <point x="246" y="695" type="line"/>
      <point x="124" y="695" type="line"/>
    </contour>
  </outline>
</glyph>
<glyph name="N" format="2">
  <advance width="680"/>
  <unicode hex="004E"/>
  <outline>
    <contour>
      <point x="105" y="0" type="line"/>
      <point x="189" y="0" type="line"/>
      <point x="176" y="594" type="line"/>
      <point x="179" y="594" type="line"/>
      <point x="462" y="0" type="line"/>
      <point x="575" y="0" type="line"/>
      <point x="575" y="695" type="line"/>
      <point x="491" y="695" type="line"/>
      <point x="504" y="101" type="line"/>
      <point x="501" y="101" type="line"/>
      <point x="218" y="695" type="line"/>
      <point x="105" y="695" type="line"/>
    </contour>
  </outline>
</glyph>
<glyph name="O" format="2">
  <advance width="656"/>
  <unicode hex="004F"/>
  <anchor x="328" y="0" name="bottom"/>
  <anchor x="328" y="348" name="center"/>
  <anchor x="590" y="10" name="ogonek"/>
  <anchor x="328" y="695" name="top"/>
  <anchor x="20" y="695" name="topleft"/>
  <anchor x="636" y="695" name="topright"/>
  <outline>
    <contour>
      <point x="328" y="-14" type="curve" smooth="yes"/>
      <point x="468" y="-14"/>
      <point x="584" y="55"/>
      <point x="584" y="349" type="curve" smooth="yes"/>
      <point x="584" y="641"/>
      <point x="468" y="709"/>
      <point x="328" y="709" type="curve" smooth="yes"/>
      <point x="188" y="709"/>
      <point x="72" y="641"/>
      <point x="72" y="349" type="curve" smooth="yes"/>
      <point x="72" y="55"/>
      <point x="188" y="-14"/>
    </contour>
    <contour>
      <point x="328" y="62" type="curve" smooth="yes"/>
      <point x="212" y="62"/>
      <point x="161" y="95"/>
      <point x="161" y="346" type="curve" smooth="yes"/>
      <point x="161" y="596"/>
      <point x="209" y="633"/>
      <point x="328" y="633" type="curve" smooth="yes"/>
      <point x="446" y="633"/>
      <point x="495" y="596"/>
      <point x="495" y="346" type="curve" smooth="yes"/>
      <point x="495" y="95"/>
      <point x="443" y="62"/>
    </contour>
  </outline>
</glyph>
<glyph name="W" format="2">
  <advance width="748"/>
  <unicode hex="0057"/>
  <anchor x="374" y="0" name="bottom"/>
  <anchor x="374" y="695" name="top"/>
  <outline>
    <contour>
      <point x="139" y="0" type="line"/>
      <point x="259" y="0" type="line"/>
      <point x="371" y="458" type="line"/>
      <point x="377" y="458" type="line"/>
      <point x="488" y="0" type="line"/>
      <point x="610" y="0" type="line"/>
      <point x="735" y="695" type="line"/>
      <point x="649" y="695" type="line"/>
      <point x="546" y="36" type="line"/>
      <point x="589" y="74" type="line"/>
      <point x="507" y="74" type="line"/>
      <point x="554" y="37" type="line"/>
      <point x="434" y="532" type="line"/>
      <point x="314" y="532" type="line"/>
      <point x="194" y="37" type="line"/>
      <point x="241" y="74" type="line"/>
      <point x="160" y="74" type="line"/>
      <point x="202" y="36" type="line"/>
      <point x="99" y="695" type="line"/>
      <point x="13" y="695" type="line"/>
    </contour>
  </outline>
</glyph>
<glyph name="X" format="2">
  <advance width="536"/>
  <unicode hex="0058"/>
  <anchor x="268" y="0" name="bottom"/>
  <anchor x="268" y="695" name="top"/>
  <outline>
    <contour>
      <point x="16" y="0" type="line"/>
      <point x="115" y="0" type="line"/>
      <point x="280" y="333" type="line"/>
      <point x="227" y="300" type="line"/>
      <point x="291" y="300" type="line"/>
      <point x="244" y="333" type="line"/>
      <point x="421" y="0" type="line"/>
      <point x="520" y="0" type="line"/>
      <point x="299" y="378" type="line"/>
      <point x="293" y="338" type="line"/>
      <point x="505" y="695" type="line"/>
      <point x="411" y="695" type="line"/>
      <point x="240" y="383" type="line"/>
      <point x="304" y="413" type="line"/>
      <point x="222" y="413" type="line"/>
      <point x="293" y="382" type="line"/>
      <point x="124" y="695" type="line"/>
      <point x="30" y="695" type="line"/>
      <point x="239" y="338" type="line"/>
      <point x="230" y="389" type="line"/>
    </contour>
  </outline>
</glyph>
<glyph name="Z" format="2">
  <advance width="529"/>
  <unicode hex="005A"/>
  <anchor x="266" y="0" name="bottom"/>
  <anchor x="266" y="695" name="top"/>
  <outline>
    <contour>
      <point x="27" y="0" type="line"/>
      <point x="489" y="0" type="line"/>
      <point x="489" y="74" type="line"/>
      <point x="86" y="71" type="line"/>
      <point x="126" y="33" type="line"/>
      <point x="128" y="116" type="line"/>
      <point x="106" y="47" type="line"/>
      <point x="496" y="656" type="line"/>
      <point x="475" y="581" type="line"/>
      <point x="475" y="695" type="line"/>
      <point x="47" y="695" type="line"/>
      <point x="47" y="621" type="line"/>
      <point x="417" y="624" type="line"/>
      <point x="378" y="662" type="line"/>
      <point x="378" y="579" type="line"/>
      <point x="398" y="648" type="line"/>
      <point x="6" y="39" type="line"/>
      <point x="27" y="105" type="line"/>
    </contour>
  </outline>
</glyph>
<glyph name="backslash" format="2">
  <advance width="432"/>
  <unicode hex="005C"/>
  <outline>
    <contour>
      <point x="338" y="-98" type="line"/>
      <point x="426" y="-98" type="line"/>
      <point x="256" y="319" type="line"/>
      <point x="111" y="695" type="line"/>
      <point x="22" y="695" type="line"/>
      <point x="188" y="288" type="line"/>
    </contour>
  </outline>
</glyph>
<glyph name="bracketright" format="2">
  <advance width="311"/>
  <unicode hex="005D"/>
  <outline>
    <contour>
      <point x="41" y="-124" type="line"/>
      <point x="205" y="-124" type="line"/>
      <point x="205" y="783" type="line"/>
      <point x="41" y="783" type="line"/>
      <point x="41" y="715" type="line"/>
      <point x="131" y="718" type="line"/>
      <point x="131" y="-59" type="line"/>
      <point x="41" y="-56" type="line"/>
    </contour>
  </outline>
</glyph>
<glyph name="asciicircum" format="2">
  <advance width="506"/>
  <unicode hex="005E"/>
  <outline>
    <contour>
      <point x="133" y="316" type="line"/>
      <point x="250" y="630" type="line"/>
      <point x="257" y="630" type="line"/>
      <point x="374" y="316" type="line"/>
      <point x="448" y="325" type="line"/>
      <point x="302" y="695" type="line"/>
      <point x="204" y="695" type="line"/>
      <point x="58" y="325" type="line"/>
    </contour>
  </outline>
</glyph>
<glyph name="j" format="2">
  <advance width="307"/>
  <unicode hex="006A"/>
  <outline>
    <contour>
      <point x="43" y="-180" type="curve" smooth="yes"/>
      <point x="131" y="-180"/>
      <point x="201" y="-123"/>
      <point x="201" y="53" type="curve" smooth="yes"/>
      <point x="201" y="582" type="line"/>
      <point x="118" y="582" type="line"/>
      <point x="118" y="50" type="line" smooth="yes"/>
      <point x="118" y="-95"/>
      <point x="105" y="-105"/>
      <point x="53" y="-105" type="curve" smooth="yes"/>
      <point x="20" y="-105"/>
      <point x="-8" y="-101"/>
      <point x="-8" y="-101" type="curve"/>
      <point x="-17" y="-175" type="line"/>
      <point x="-17" y="-175"/>
      <point x="17" y="-180"/>
    </contour>
    <contour>
      <point x="109" y="681" type="line"/>
      <point x="211" y="681" type="line"/>
      <point x="211" y="766" type="line"/>
      <point x="109" y="766" type="line"/>
    </contour>
  </outline>
</glyph>
<glyph name="n" format="2">
  <advance width="601"/>
  <unicode hex="006E"/>
  <outline>
    <contour>
      <point x="101" y="0" type="line"/>
      <point x="184" y="0" type="line"/>
      <point x="184" y="463" type="line"/>
      <point x="201" y="472"/>
      <point x="287" y="516"/>
      <point x="360" y="516" type="curve" smooth="yes"/>
      <point x="383" y="516"/>
      <point x="404" y="512"/>
      <point x="415" y="495" type="curve" smooth="yes"/>
      <point x="429" y="474"/>
      <point x="430" y="437"/>
      <point x="430" y="358" type="curve" smooth="yes"/>
      <point x="430" y="0" type="line"/>
      <point x="513" y="0" type="line"/>
      <point x="513" y="387" type="line" smooth="yes"/>
      <point x="513" y="505"/>
      <point x="489" y="595"/>
      <point x="379" y="595" type="curve" smooth="yes"/>
      <point x="292" y="595"/>
      <point x="195" y="539"/>
      <point x="171" y="525" type="curve"/>
      <point x="166" y="525" type="line"/>
      <point x="157" y="582" type="line"/>
      <point x="101" y="582" type="line"/>
    </contour>
  </outline>
</glyph>
<glyph name="p" format="2">
  <advance width="577"/>
  <unicode hex="0070"/>
  <outline>
    <contour>
      <point x="85" y="-166" type="line"/>
      <point x="168" y="-166" type="line"/>
      <point x="168" y="-1" type="line"/>
      <point x="194" y="-6"/>
      <point x="247" y="-14"/>
      <point x="296" y="-14" type="curve" smooth="yes"/>
      <point x="401" y="-14"/>
      <point x="507" y="44"/>
      <point x="507" y="302" type="curve" smooth="yes"/>
      <point x="507" y="507"/>
      <point x="439" y="595"/>
      <point x="331" y="595" type="curve" smooth="yes"/>
      <point x="253" y="595"/>
      <point x="195" y="550"/>
      <point x="158" y="523" type="curve"/>
      <point x="152" y="523" type="line"/>
      <point x="141" y="582" type="line"/>
      <point x="85" y="582" type="line"/>
    </contour>
    <contour>
      <point x="315" y="60" type="curve" smooth="yes"/>
      <point x="259" y="60"/>
      <point x="196" y="73"/>
      <point x="168" y="81" type="curve"/>
      <point x="168" y="467" type="line"/>
      <point x="194" y="482"/>
      <point x="269" y="521"/>
      <point x="334" y="521" type="curve" smooth="yes"/>
      <point x="368" y="521"/>
      <point x="383" y="511"/>
      <point x="390" y="504" type="curve" smooth="yes"/>
      <point x="407" y="487"/>
      <point x="419" y="449"/>
      <point x="419" y="318" type="curve" smooth="yes"/>
      <point x="419" y="155"/>
      <point x="400" y="99"/>
      <point x="372" y="76" type="curve" smooth="yes"/>
      <point x="354" y="61"/>
      <point x="329" y="60"/>
    </contour>
  </outline>
</glyph>
<glyph name="v" format="2">
  <advance width="474"/>
  <unicode hex="0076"/>
  <outline>
    <contour>
      <point x="183" y="0" type="line"/>
      <point x="291" y="0" type="line"/>
      <point x="459" y="582" type="line"/>
      <point x="370" y="582" type="line"/>
      <point x="240" y="71" type="line"/>
      <point x="234" y="71" type="line"/>
      <point x="103" y="582" type="line"/>
      <point x="14" y="582" type="line"/>
    </contour>
  </outline>
</glyph>
<glyph name="w" format="2">
  <advance width="727"/>
  <unicode hex="0077"/>
  <outline>
    <contour>
      <point x="139" y="0" type="line"/>
      <point x="261" y="0" type="line"/>
      <point x="361" y="440" type="line"/>
      <point x="367" y="440" type="line"/>
      <point x="467" y="0" type="line"/>
      <point x="589" y="0" type="line"/>
      <point x="704" y="582" type="line"/>
      <point x="619" y="582" type="line"/>
      <point x="531" y="65" type="line"/>
      <point x="526" y="65" type="line"/>
      <point x="425" y="505" type="line"/>
      <point x="303" y="505" type="line"/>
      <point x="202" y="65" type="line"/>
      <point x="197" y="65" type="line"/>
      <point x="109" y="582" type="line"/>
      <point x="24" y="582" type="line"/>
    </contour>
  </outline>
</glyph>
<glyph name="z" format="2">
  <advance width="471"/>
  <unicode hex="007A"/>
  <outline>
    <contour>
      <point x="34" y="0" type="line"/>
      <point x="435" y="0" type="line"/>
      <point x="435" y="69" type="line"/>
      <point x="131" y="65" type="line"/>
      <point x="131" y="72" type="line"/>
      <point x="429" y="515" type="line"/>
      <point x="429" y="582" type="line"/>
      <point x="47" y="582" type="line"/>
      <point x="47" y="513" type="line"/>
      <point x="333" y="517" type="line"/>
      <point x="333" y="512" type="line"/>
      <point x="34" y="67" type="line"/>
    </contour>
  </outline>
</glyph>
<glyph name="brokenbar" format="2">
  <advance width="280"/>
  <unicode hex="00A6"/>
  <outline>
    <contour>
      <point x="103" y="403" type="line"/>
      <point x="177" y="403" type="line"/>
      <point x="177" y="753" type="line"/>
      <point x="103" y="753" type="line"/>
    </contour>
    <contour>
      <point x="103" y="-81" type="line"/>
      <point x="177" y="-81" type="line"/>
      <point x="177" y="269" type="line"/>
      <point x="103" y="269" type="line"/>
    </contour>
  </outline>
</glyph>
<glyph name="threesuperior" format="2">
  <advance width="355"/>
  <unicode hex="00B3"/>
  <outline>
    <contour>
      <point x="169" y="290" type="curve" smooth="yes"/>
      <point x="263" y="290"/>
      <point x="295" y="343"/>
      <point x="295" y="410" type="curve" smooth="yes"/>
      <point x="295" y="487"/>
      <point x="247" y="507"/>
      <point x="218" y="511" type="curve"/>
      <point x="218" y="515" type="line"/>
      <point x="231" y="516"/>
      <point x="283" y="528"/>
      <point x="283" y="601" type="curve" smooth="yes"/>
      <point x="283" y="680"/>
      <point x="229" y="703"/>
      <point x="156" y="703" type="curve" smooth="yes"/>
      <point x="127" y="703"/>
      <point x="85" y="698"/>
      <point x="64" y="694" type="curve"/>
      <point x="69" y="639" type="line"/>
      <point x="109" y="644"/>
      <point x="124" y="645"/>
      <point x="145" y="645" type="curve" smooth="yes"/>
      <point x="177" y="645"/>
      <point x="195" y="640"/>
      <point x="205" y="632" type="curve" smooth="yes"/>
      <point x="212" y="625"/>
      <point x="217" y="612"/>
      <point x="217" y="593" type="curve" smooth="yes"/>
      <point x="217" y="543"/>
      <point x="191" y="542"/>
      <point x="104" y="535" type="curve"/>
      <point x="104" y="481" type="line"/>
      <point x="154" y="481" type="line" smooth="yes"/>
      <point x="202" y="481"/>
      <point x="228" y="465"/>
      <point x="228" y="413" type="curve" smooth="yes"/>
      <point x="228" y="367"/>
      <point x="213" y="348"/>
      <point x="169" y="348" type="curve" smooth="yes"/>
      <point x="117" y="348"/>
      <point x="61" y="376"/>
      <point x="61" y="376" type="curve"/>
      <point x="42" y="324" type="line"/>
      <point x="42" y="324"/>
      <point x="98" y="290"/>
    </contour>
  </outline>
</glyph>
<glyph name="onesuperior" format="2">
  <advance width="371"/>
  <unicode hex="00B9"/>
  <outline>
    <contour>
      <point x="64" y="298" type="line"/>
      <point x="321" y="298" type="line"/>
      <point x="321" y="356" type="line"/>
      <point x="233" y="356" type="line"/>
      <point x="233" y="697" type="line"/>
      <point x="161" y="702" type="line"/>
      <point x="39" y="609" type="line"/>
      <point x="75" y="563" type="line"/>
      <point x="161" y="636" type="line"/>
      <point x="165" y="636" type="line"/>
      <point x="165" y="356" type="line"/>
      <point x="64" y="356" type="line"/>
    </contour>
  </outline>
</glyph>
<glyph name="AE" format="2">
  <advance width="765"/>
  <unicode hex="00C6"/>
  <outline>
    <contour>
      <point x="-3" y="0" type="line"/>
      <point x="86" y="0" type="line"/>
      <point x="164" y="183" type="line"/>
      <point x="356" y="183" type="line"/>
      <point x="356" y="0" type="line"/>
      <point x="697" y="0" type="line"/>
      <point x="697" y="75" type="line"/>
      <point x="439" y="73" type="line"/>
      <point x="434" y="318" type="line"/>
      <point x="673" y="318" type="line"/>
      <point x="673" y="389" type="line"/>
      <point x="434" y="389" type="line"/>
      <point x="439" y="622" type="line"/>
      <point x="697" y="619" type="line"/>
      <point x="697" y="695" type="line"/>
      <point x="296" y="695" type="line"/>
    </contour>
    <contour>
      <point x="185" y="256" type="line"/>
      <point x="338" y="627" type="line"/>
      <point x="356" y="627" type="line"/>
      <point x="356" y="256" type="line"/>
    </contour>
  </outline>
</glyph>
<glyph name="Icircumflex" format="2">
  <advance width="295"/>
  <unicode hex="00CE"/>
  <outline>
    <contour>
      <point x="34" y="733" type="line"/>
      <point x="144" y="794" type="line"/>
      <point x="151" y="794" type="line"/>
      <point x="261" y="733" type="line"/>
      <point x="287" y="773" type="line"/>
      <point x="173" y="866" type="line"/>
      <point x="122" y="866" type="line"/>
      <point x="8" y="773" type="line"/>
    </contour>
    <component base="I"/>
  </outline>
</glyph>
<glyph name="ae" format="2">
  <advance width="883"/>
  <unicode hex="00E6"/>
  <anchor x="442" y="0" name="bottom"/>
  <anchor x="442" y="582" name="top"/>
  <outline>
    <contour>
      <point x="215" y="-13" type="curve" smooth="yes"/>
      <point x="325" y="-13"/>
      <point x="422" y="61"/>
      <point x="443" y="78" type="curve"/>
      <point x="408" y="68" type="line"/>
      <point x="470" y="68" type="line"/>
      <point x="423" y="92" type="line"/>
      <point x="462" y="12"/>
      <point x="530" y="-13"/>
      <point x="615" y="-13" type="curve" smooth="yes"/>
      <point x="720" y="-13"/>
      <point x="802" y="30"/>
      <point x="802" y="30" type="curve"/>
      <point x="781" y="98" type="line"/>
      <point x="781" y="98"/>
      <point x="680" y="60"/>
      <point x="606" y="60" type="curve" smooth="yes"/>
      <point x="556" y="60"/>
      <point x="535" y="68"/>
      <point x="517" y="84" type="curve" smooth="yes"/>
      <point x="503" y="99"/>
      <point x="479" y="134"/>
      <point x="475" y="234" type="curve" smooth="yes"/>
      <point x="475" y="288" type="line"/>
      <point x="437" y="270" type="line"/>
      <point x="818" y="270" type="line"/>
      <point x="818" y="329" type="line" smooth="yes"/>
      <point x="818" y="526"/>
      <point x="744" y="595"/>
      <point x="617" y="595" type="curve" smooth="yes"/>
      <point x="546" y="595"/>
      <point x="488" y="575"/>
      <point x="447" y="519" type="curve"/>
      <point x="443" y="519" type="line"/>
      <point x="415" y="568"/>
      <point x="365" y="595"/>
      <point x="279" y="595" type="curve" smooth="yes"/>
      <point x="186" y="595"/>
      <point x="67" y="538"/>
      <point x="67" y="538" type="curve"/>
      <point x="96" y="473" type="line"/>
      <point x="96" y="473"/>
      <point x="204" y="523"/>
      <point x="306" y="523" type="curve" smooth="yes"/>
      <point x="333" y="523"/>
      <point x="357" y="520"/>
      <point x="371" y="499" type="curve" smooth="yes"/>
      <point x="391" y="470"/>
      <point x="390" y="429"/>
      <point x="390" y="313" type="curve"/>
      <point x="428" y="342" type="line"/>
      <point x="284" y="342" type="line" smooth="yes"/>
      <point x="150" y="342"/>
      <point x="54" y="300"/>
      <point x="54" y="171" type="curve" smooth="yes"/>
      <point x="54" y="45"/>
      <point x="118" y="-13"/>
    </contour>
    <contour>
      <point x="228" y="61" type="curve" smooth="yes"/>
      <point x="166" y="61"/>
      <point x="141" y="89"/>
      <point x="141" y="162" type="curve" smooth="yes"/>
      <point x="141" y="211"/>
      <point x="151" y="239"/>
      <point x="168" y="253" type="curve" smooth="yes"/>
      <point x="183" y="265"/>
      <point x="224" y="272"/>
      <point x="279" y="272" type="curve" smooth="yes"/>
      <point x="365" y="272"/>
      <point x="384" y="265"/>
      <point x="398" y="263" type="curve"/>
      <point x="390" y="293" type="line"/>
      <point x="390" y="73" type="line"/>
      <point x="403" y="118" type="line"/>
      <point x="384" y="107"/>
      <point x="304" y="61"/>
    </contour>
    <contour>
      <point x="475" y="300" type="line"/>
      <point x="471" y="389"/>
      <point x="480" y="452"/>
      <point x="507" y="485" type="curve" smooth="yes"/>
      <point x="526" y="509"/>
      <point x="555" y="523"/>
      <point x="620" y="523" type="curve" smooth="yes"/>
      <point x="677" y="523"/>
      <point x="700" y="511"/>
      <point x="710" y="496" type="curve" smooth="yes"/>
      <point x="729" y="465"/>
      <point x="733" y="411"/>
      <point x="733" y="341" type="curve"/>
      <point x="436" y="335" type="line"/>
    </contour>
  </outline>
</glyph>
<glyph name="icircumflex" format="2">
  <advance width="295"/>
  <unicode hex="00EE"/>
  <outline>
    <contour>
      <point x="40" y="660" type="line"/>
      <point x="144" y="730" type="line"/>
      <point x="152" y="730" type="line"/>
      <point x="256" y="660" type="line"/>
      <point x="288" y="693" type="line"/>
      <point x="174" y="802" type="line"/>
      <point x="121" y="802" type="line"/>
      <point x="7" y="693" type="line"/>
    </contour>
    <component base="dotlessi"/>
  </outline>
</glyph>
<glyph name="idieresis" format="2">
  <advance width="295"/>
  <unicode hex="00EF"/>
  <outline>
    <contour>
      <point x="7" y="684" type="line"/>
      <point x="106" y="684" type="line"/>
      <point x="106" y="766" type="line"/>
      <point x="7" y="766" type="line"/>
    </contour>
    <contour>
      <point x="190" y="684" type="line"/>
      <point x="288" y="684" type="line"/>
      <point x="288" y="766" type="line"/>
      <point x="190" y="766" type="line"/>
    </contour>
    <component base="dotlessi"/>
  </outline>
</glyph>
<glyph name="divide" format="2">
  <advance width="618"/>
  <unicode hex="00F7"/>
  <outline>
    <contour>
      <point x="52" y="258" type="line"/>
      <point x="567" y="258" type="line"/>
      <point x="567" y="328" type="line"/>
      <point x="52" y="328" type="line"/>
    </contour>
    <contour>
      <point x="256" y="51" type="line"/>
      <point x="364" y="51" type="line"/>
      <point x="364" y="135" type="line"/>
      <point x="256" y="135" type="line"/>
    </contour>
    <contour>
      <point x="256" y="450" type="line"/>
      <point x="364" y="450" type="line"/>
      <point x="364" y="535" type="line"/>
      <point x="256" y="535" type="line"/>
    </contour>
  </outline>
</glyph>
<glyph name="oslash" format="2">
  <advance width="579"/>
  <unicode hex="00F8"/>
  <outline>
    <contour>
      <point x="90" y="-45" type="line"/>
      <point x="166" y="-45" type="line"/>
      <point x="189" y="6" type="line"/>
      <point x="440" y="539" type="line"/>
      <point x="479" y="620" type="line"/>
      <point x="403" y="620" type="line"/>
      <point x="384" y="578" type="line"/>
      <point x="134" y="46" type="line"/>
    </contour>
    <component base="o" xOffset="1"/>
  </outline>
</glyph>
<glyph name="oe" format="2">
  <advance width="916"/>
  <unicode hex="0153"/>
  <outline>
    <contour>
      <point x="288" y="-13" type="curve" smooth="yes"/>
      <point x="375" y="-13"/>
      <point x="433" y="20"/>
      <point x="466" y="80" type="curve"/>
      <point x="470" y="80" type="line"/>
      <point x="509" y="15"/>
      <point x="569" y="-13"/>
      <point x="648" y="-13" type="curve" smooth="yes"/>
      <point x="752" y="-13"/>
      <point x="835" y="30"/>
      <point x="835" y="30" type="curve"/>
      <point x="814" y="98" type="line"/>
      <point x="814" y="98"/>
      <point x="713" y="60"/>
      <point x="638" y="60" type="curve" smooth="yes"/>
      <point x="590" y="60"/>
      <point x="568" y="68"/>
      <point x="550" y="84" type="curve" smooth="yes"/>
      <point x="535" y="97"/>
      <point x="510" y="132"/>
      <point x="507" y="225" type="curve" smooth="yes"/>
      <point x="507" y="259" type="line"/>
      <point x="851" y="259" type="line"/>
      <point x="851" y="321" type="line" smooth="yes"/>
      <point x="851" y="523"/>
      <point x="776" y="595"/>
      <point x="649" y="595" type="curve" smooth="yes"/>
      <point x="570" y="595"/>
      <point x="507" y="570"/>
      <point x="467" y="502" type="curve"/>
      <point x="463" y="502" type="line"/>
      <point x="431" y="561"/>
      <point x="376" y="595"/>
      <point x="288" y="595" type="curve" smooth="yes"/>
      <point x="122" y="595"/>
      <point x="70" y="478"/>
      <point x="70" y="291" type="curve" smooth="yes"/>
      <point x="70" y="103"/>
      <point x="122" y="-13"/>
    </contour>
    <contour>
      <point x="288" y="58" type="curve" smooth="yes"/>
      <point x="187" y="58"/>
      <point x="154" y="93"/>
      <point x="154" y="291" type="curve" smooth="yes"/>
      <point x="154" y="489"/>
      <point x="187" y="523"/>
      <point x="288" y="523" type="curve" smooth="yes"/>
      <point x="389" y="523"/>
      <point x="421" y="489"/>
      <point x="421" y="291" type="curve" smooth="yes"/>
      <point x="421" y="93"/>
      <point x="389" y="58"/>
    </contour>
    <contour>
      <point x="507" y="325" type="line"/>
      <point x="507" y="399"/>
      <point x="517" y="454"/>
      <point x="539" y="483" type="curve" smooth="yes"/>
      <point x="559" y="509"/>
      <point x="588" y="523"/>
      <point x="653" y="523" type="curve" smooth="yes"/>
      <point x="710" y="523"/>
      <point x="733" y="511"/>
      <point x="743" y="493" type="curve" smooth="yes"/>
      <point x="762" y="462"/>
      <point x="766" y="406"/>
      <point x="766" y="330" type="curve"/>
    </contour>
  </outline>
</glyph>
<glyph name="Tbar" format="2">
  <advance width="474"/>
  <unicode hex="0166"/>
  <outline>
    <contour>
      <point x="443" y="416" type="line"/>
      <point x="39" y="416" type="line"/>
      <point x="39" y="350" type="line"/>
      <point x="443" y="350" type="line"/>
    </contour>
    <component base="T"/>
  </outline>
</glyph>
<glyph name="dotlessj" format="2">
  <advance width="307"/>
  <unicode hex="0237"/>
  <anchor x="154" y="0" name="bottom"/>
  <anchor x="160" y="582" name="top"/>
  <outline>
    <contour>
      <point x="43" y="-180" type="curve" smooth="yes"/>
      <point x="131" y="-180"/>
      <point x="201" y="-123"/>
      <point x="201" y="53" type="curve" smooth="yes"/>
      <point x="201" y="582" type="line"/>
      <point x="118" y="582" type="line"/>
      <point x="118" y="50" type="line" smooth="yes"/>
      <point x="118" y="-95"/>
      <point x="105" y="-105"/>
      <point x="53" y="-105" type="curve" smooth="yes"/>
      <point x="20" y="-105"/>
      <point x="-8" y="-101"/>
      <point x="-8" y="-101" type="curve"/>
      <point x="-17" y="-175" type="line"/>
      <point x="-17" y="-175"/>
      <point x="17" y="-180"/>
    </contour>
  </outline>
</glyph>
<glyph name="breve" format="2">
  <advance width="298"/>
  <unicode hex="02D8"/>
  <outline>
    <contour>
      <point x="149" y="657" type="curve" smooth="yes"/>
      <point x="223" y="657"/>
      <point x="293" y="698"/>
      <point x="298" y="800" type="curve"/>
      <point x="241" y="806" type="line"/>
      <point x="236" y="745"/>
      <point x="200" y="724"/>
      <point x="149" y="724" type="curve" smooth="yes"/>
      <point x="98" y="724"/>
      <point x="62" y="745"/>
      <point x="57" y="806" type="curve"/>
      <point x="0" y="800" type="line"/>
      <point x="4" y="698"/>
      <point x="75" y="657"/>
    </contour>
  </outline>
</glyph>
<glyph name="ogonek" format="2">
  <advance width="163"/>
  <unicode hex="02DB"/>
  <outline>
    <contour>
      <point x="102" y="-179" type="curve"/>
      <point x="136" y="-179"/>
      <point x="163" y="-171"/>
      <point x="163" y="-171" type="curve"/>
      <point x="163" y="-112" type="line"/>
      <point x="163" y="-112"/>
      <point x="134" y="-116"/>
      <point x="113" y="-116" type="curve"/>
      <point x="85" y="-116"/>
      <point x="67" y="-110"/>
      <point x="67" y="-86" type="curve"/>
      <point x="67" y="-61"/>
      <point x="109" y="-22"/>
      <point x="163" y="0" type="curve"/>
      <point x="121" y="21" type="line"/>
      <point x="70" y="1"/>
      <point x="0" y="-47"/>
      <point x="0" y="-103" type="curve"/>
      <point x="0" y="-158"/>
      <point x="45" y="-179"/>
    </contour>
  </outline>
</glyph>
<glyph name="hungarumlaut" format="2">
  <advance width="600"/>
  <unicode hex="02DD"/>
  <outline>
    <contour>
      <point x="33" y="649" type="line"/>
      <point x="198" y="761" type="line"/>
      <point x="153" y="820" type="line"/>
      <point x="0" y="689" type="line"/>
    </contour>
    <contour>
      <point x="220" y="649" type="line"/>
      <point x="393" y="761" type="line"/>
      <point x="348" y="820" type="line"/>
      <point x="188" y="689" type="line"/>
    </contour>
  </outline>
</glyph>
<glyph name="horncomb" format="2">
  <unicode hex="031B"/>
  <outline>
    <contour>
      <point x="-47" y="583" type="line"/>
      <point x="-34" y="524" type="line"/>
      <point x="-11" y="524" type="line" smooth="yes"/>
      <point x="54" y="524"/>
      <point x="106" y="561"/>
      <point x="106" y="627" type="curve" smooth="yes"/>
      <point x="106" y="659"/>
      <point x="98" y="694"/>
      <point x="91" y="720" type="curve"/>
      <point x="8" y="720" type="line"/>
      <point x="15" y="688"/>
      <point x="26" y="634"/>
      <point x="26" y="613" type="curve" smooth="yes"/>
      <point x="26" y="590"/>
      <point x="19" y="582"/>
      <point x="-1" y="582" type="curve" smooth="yes"/>
    </contour>
  </outline>
</glyph>
<glyph name="cedillacomb" format="2">
  <unicode hex="0327"/>
  <outline>
    <contour>
      <point x="73" y="-179" type="curve" smooth="yes"/>
      <point x="136" y="-179"/>
      <point x="182" y="-141"/>
      <point x="182" y="-79" type="curve" smooth="yes"/>
      <point x="182" y="-47"/>
      <point x="170" y="-8"/>
      <point x="163" y="10" type="curve"/>
      <point x="104" y="6" type="line"/>
      <point x="109" y="-13"/>
      <point x="118" y="-48"/>
      <point x="118" y="-82" type="curve" smooth="yes"/>
      <point x="118" y="-109"/>
      <point x="104" y="-113"/>
      <point x="64" y="-113" type="curve" smooth="yes"/>
      <point x="44" y="-113"/>
      <point x="0" y="-108"/>
      <point x="0" y="-108" type="curve"/>
      <point x="0" y="-170" type="line"/>
      <point x="0" y="-170"/>
      <point x="37" y="-179"/>
    </contour>
  </outline>
</glyph>
<glyph name="E-cy" format="2">
  <advance width="583"/>
  <unicode hex="0404"/>
  <anchor x="292" y="0" name="bottom"/>
  <anchor x="324" y="695" name="top"/>
  <outline>
    <contour>
      <point x="148" y="317" type="line"/>
      <point x="447" y="317" type="line"/>
      <point x="447" y="391" type="line"/>
      <point x="148" y="391" type="line"/>
    </contour>
    <component base="C"/>
  </outline>
</glyph>
<glyph name="Yi-cy" format="2">
  <advance width="295"/>
  <unicode hex="0407"/>
  <outline>
    <contour>
      <point x="17" y="762" type="line"/>
      <point x="116" y="762" type="line"/>
      <point x="116" y="844" type="line"/>
      <point x="17" y="844" type="line"/>
    </contour>
    <contour>
      <point x="180" y="762" type="line"/>
      <point x="278" y="762" type="line"/>
      <point x="278" y="844" type="line"/>
      <point x="180" y="844" type="line"/>
    </contour>
    <component base="I"/>
  </outline>
</glyph>
<glyph name="Lje-cy" format="2">
  <advance width="945"/>
  <unicode hex="0409"/>
  <outline>
    <contour>
      <point x="43" y="-14" type="curve"/>
      <point x="27" y="54" type="line"/>
      <point x="44" y="57"/>
      <point x="61" y="60"/>
      <point x="72" y="64" type="curve" smooth="yes"/>
      <point x="111" y="78"/>
      <point x="120" y="99"/>
      <point x="128" y="224" type="curve" smooth="yes"/>
      <point x="158" y="695" type="line"/>
      <point x="242" y="695" type="line"/>
      <point x="210" y="223" type="line" smooth="yes"/>
      <point x="204" y="128"/>
      <point x="194" y="61"/>
      <point x="158" y="28" type="curve" smooth="yes"/>
      <point x="129" y="1"/>
      <point x="84" y="-14"/>
    </contour>
    <contour>
      <point x="448" y="1" type="curve"/>
      <point x="452" y="373" type="line"/>
      <point x="448" y="695" type="line"/>
      <point x="532" y="695" type="line"/>
      <point x="532" y="410" type="line"/>
      <point x="522" y="424" type="line"/>
      <point x="542" y="426"/>
      <point x="597" y="431"/>
      <point x="657" y="431" type="curve" smooth="yes"/>
      <point x="776" y="431"/>
      <point x="875" y="383"/>
      <point x="875" y="207" type="curve" smooth="yes"/>
      <point x="875" y="65"/>
      <point x="807" y="-13"/>
      <point x="658" y="-13" type="curve" smooth="yes"/>
      <point x="571" y="-13"/>
      <point x="448" y="1"/>
    </contour>
    <contour>
      <point x="663" y="359" type="curve" smooth="yes"/>
      <point x="592" y="359"/>
      <point x="547" y="351"/>
      <point x="520" y="346" type="curve"/>
      <point x="532" y="367" type="line"/>
      <point x="532" y="22" type="line"/>
      <point x="521" y="73" type="line"/>
      <point x="536" y="68"/>
      <point x="596" y="59"/>
      <point x="658" y="59" type="curve" smooth="yes"/>
      <point x="706" y="59"/>
      <point x="739" y="66"/>
      <point x="752" y="75" type="curve" smooth="yes"/>
      <point x="767" y="85"/>
      <point x="786" y="111"/>
      <point x="786" y="195" type="curve" smooth="yes"/>
      <point x="786" y="259"/>
      <point x="780" y="317"/>
      <point x="757" y="340" type="curve" smooth="yes"/>
      <point x="741" y="356"/>
      <point x="715" y="359"/>
    </contour>
    <contour>
      <point x="213" y="620" type="line"/>
      <point x="213" y="695" type="line"/>
      <point x="532" y="695" type="line"/>
      <point x="459" y="623" type="line"/>
    </contour>
  </outline>
</glyph>
<glyph name="Nje-cy" format="2">
  <advance width="906"/>
  <unicode hex="040A"/>
  <outline>
    <contour>
      <point x="105" y="0" type="line"/>
      <point x="105" y="695" type="line"/>
      <point x="189" y="695" type="line"/>
      <point x="186" y="374" type="line"/>
      <point x="148" y="402" type="line"/>
      <point x="482" y="402" type="line"/>
      <point x="483" y="328" type="line"/>
      <point x="148" y="328" type="line"/>
      <point x="186" y="356" type="line"/>
      <point x="189" y="0" type="line"/>
    </contour>
    <component base="Softsign-cy" xOffset="330"/>
  </outline>
</glyph>
<glyph name="Tshe-cy" format="2">
  <advance width="712"/>
  <unicode hex="040B"/>
  <outline>
    <contour>
      <point x="171" y="0" type="line"/>
      <point x="255" y="0" type="line"/>
      <point x="255" y="333" type="line"/>
      <point x="293" y="347"/>
      <point x="378" y="369"/>
      <point x="441" y="369" type="curve" smooth="yes"/>
      <point x="465" y="369"/>
      <point x="500" y="371"/>
      <point x="522" y="349" type="curve" smooth="yes"/>
      <point x="538" y="333"/>
      <point x="540" y="298"/>
      <point x="540" y="233" type="curve" smooth="yes"/>
      <point x="540" y="0" type="line"/>
      <point x="624" y="0" type="line"/>
      <point x="624" y="229" type="line" smooth="yes"/>
      <point x="624" y="366"/>
      <point x="594" y="447"/>
      <point x="453" y="447" type="curve" smooth="yes"/>
      <point x="388" y="447"/>
      <point x="308" y="423"/>
      <point x="255" y="408" type="curve"/>
      <point x="255" y="695" type="line"/>
      <point x="171" y="695" type="line"/>
    </contour>
    <contour>
      <point x="3" y="621" type="line"/>
      <point x="192" y="623" type="line"/>
      <point x="428" y="621" type="line"/>
      <point x="428" y="695" type="line"/>
      <point x="3" y="695" type="line"/>
    </contour>
  </outline>
</glyph>
<glyph name="Be-cy" format="2">
  <advance width="582"/>
  <unicode hex="0411"/>
  <guideline x="477" y="222" angle="90"/>
  <outline>
    <contour>
      <point x="179" y="404" type="line"/>
      <point x="199" y="406"/>
      <point x="254" y="411"/>
      <point x="314" y="411" type="curve" smooth="yes"/>
      <point x="423" y="411"/>
      <point x="522" y="363"/>
      <point x="522" y="197" type="curve" smooth="yes"/>
      <point x="522" y="65"/>
      <point x="454" y="-13"/>
      <point x="315" y="-13" type="curve" smooth="yes"/>
      <point x="228" y="-13"/>
      <point x="105" y="1"/>
      <point x="105" y="1" type="curve"/>
      <point x="109" y="373" type="line"/>
    </contour>
    <contour>
      <point x="320" y="337" type="curve" smooth="yes"/>
      <point x="249" y="337"/>
      <point x="161" y="320"/>
      <point x="177" y="326" type="curve"/>
      <point x="186" y="347" type="line"/>
      <point x="189" y="22" type="line"/>
      <point x="178" y="73" type="line"/>
      <point x="193" y="68"/>
      <point x="253" y="59"/>
      <point x="315" y="59" type="curve" smooth="yes"/>
      <point x="353" y="59"/>
      <point x="386" y="66"/>
      <point x="399" y="75" type="curve" smooth="yes"/>
      <point x="414" y="85"/>
      <point x="433" y="111"/>
      <point x="433" y="185" type="curve" smooth="yes"/>
      <point x="433" y="239"/>
      <point x="427" y="295"/>
      <point x="404" y="318" type="curve" smooth="yes"/>
      <point x="388" y="334"/>
      <point x="362" y="337"/>
    </contour>
    <component base="Ge-cy" xOffset="6"/>
  </outline>
</glyph>
<glyph name="El-cy" format="2">
  <advance width="641"/>
  <unicode hex="041B"/>
  <guideline x="11" y="60" angle="0" identifier="1ZOIpQo1WE"/>
  <outline>
    <contour>
      <point x="42" y="-14" type="line"/>
      <point x="83" y="-14"/>
      <point x="128" y="1"/>
      <point x="157" y="28" type="curve" smooth="yes"/>
      <point x="193" y="61"/>
      <point x="203" y="128"/>
      <point x="209" y="223" type="curve" smooth="yes"/>
      <point x="236" y="621" type="line"/>
      <point x="457" y="621" type="line"/>
      <point x="452" y="0" type="line"/>
      <point x="536" y="0" type="line"/>
      <point x="536" y="695" type="line"/>
      <point x="157" y="695" type="line"/>
      <point x="127" y="224" type="line" smooth="yes"/>
      <point x="119" y="99"/>
      <point x="110" y="78"/>
      <point x="71" y="64" type="curve" smooth="yes"/>
      <point x="60" y="60"/>
      <point x="43" y="57"/>
      <point x="26" y="54" type="curve"/>
    </contour>
  </outline>
</glyph>
<glyph name="Pe-cy" format="2">
  <advance width="640"/>
  <unicode hex="041F"/>
  <outline>
    <contour>
      <point x="105" y="0" type="line"/>
      <point x="189" y="0" type="line"/>
      <point x="187" y="372" type="line"/>
      <point x="186" y="621" type="line"/>
      <point x="455" y="621" type="line"/>
      <point x="454" y="372" type="line"/>
      <point x="452" y="0" type="line"/>
      <point x="535" y="0" type="line"/>
      <point x="535" y="695" type="line"/>
      <point x="105" y="695" type="line"/>
    </contour>
  </outline>
</glyph>
<glyph name="Tse-cy" format="2">
  <advance width="632"/>
  <unicode hex="0426"/>
  <guideline x="478" y="82" angle="0" identifier="aYyOl0Jo5g"/>
  <outline>
    <contour>
      <point x="105" y="0" type="line"/>
      <point x="535" y="0" type="line"/>
      <point x="535" y="695" type="line"/>
      <point x="452" y="695" type="line"/>
      <point x="454" y="36" type="line"/>
      <point x="492" y="74" type="line"/>
      <point x="148" y="74" type="line"/>
      <point x="186" y="36" type="line"/>
      <point x="189" y="695" type="line"/>
      <point x="105" y="695" type="line"/>
    </contour>
    <contour>
      <point x="490" y="60" type="line"/>
      <point x="515" y="-124" type="line"/>
      <point x="586" y="-124" type="line"/>
      <point x="586" y="61" type="line"/>
    </contour>
  </outline>
</glyph>
<glyph name="Che-cy" format="2">
  <advance width="620"/>
  <unicode hex="0427"/>
  <outline>
    <contour>
      <point x="431" y="0" type="line"/>
      <point x="515" y="0" type="line"/>
      <point x="515" y="695" type="line"/>
      <point x="431" y="695" type="line"/>
      <point x="431" y="375" type="line"/>
      <point x="393" y="361"/>
      <point x="308" y="339"/>
      <point x="243" y="339" type="curve" smooth="yes"/>
      <point x="219" y="339"/>
      <point x="183" y="337"/>
      <point x="162" y="359" type="curve" smooth="yes"/>
      <point x="146" y="375"/>
      <point x="144" y="420"/>
      <point x="144" y="485" type="curve" smooth="yes"/>
      <point x="144" y="695" type="line"/>
      <point x="60" y="695" type="line"/>
      <point x="60" y="479" type="line" smooth="yes"/>
      <point x="60" y="342"/>
      <point x="90" y="261"/>
      <point x="231" y="261" type="curve" smooth="yes"/>
      <point x="298" y="261"/>
      <point x="378" y="286"/>
      <point x="431" y="301" type="curve"/>
    </contour>
  </outline>
</glyph>
<glyph name="Shcha-cy" format="2">
  <advance width="897"/>
  <unicode hex="0429"/>
  <guideline x="734" y="74" angle="90"/>
  <guideline x="815" y="82" angle="90"/>
  <outline>
    <contour>
      <point x="748" y="60" type="line"/>
      <point x="773" y="-124" type="line"/>
      <point x="844" y="-124" type="line"/>
      <point x="844" y="61" type="line"/>
    </contour>
    <component base="Sha-cy"/>
  </outline>
</glyph>
<glyph name="Hardsign-cy" format="2">
  <advance width="639"/>
  <unicode hex="042A"/>
  <outline>
    <contour>
      <point x="15" y="620" type="line"/>
      <point x="15" y="695" type="line"/>
      <point x="241" y="695" type="line"/>
      <point x="168" y="623" type="line"/>
    </contour>
    <component base="Softsign-cy" xOffset="52"/>
  </outline>
</glyph>
<glyph name="zhe-cy" format="2">
  <advance width="791"/>
  <unicode hex="0436"/>
  <outline>
    <contour>
      <point x="17" y="0" type="line"/>
      <point x="120" y="0" type="line"/>
      <point x="353" y="293" type="line"/>
      <point x="134" y="582" type="line"/>
      <point x="32" y="582" type="line"/>
      <point x="258" y="294" type="line"/>
      <point x="258" y="289" type="line"/>
    </contour>
    <contour>
      <point x="350" y="0" type="line"/>
      <point x="433" y="0" type="line"/>
      <point x="428" y="293" type="line"/>
      <point x="433" y="582" type="line"/>
      <point x="350" y="582" type="line"/>
      <point x="355" y="293" type="line"/>
    </contour>
    <contour>
      <point x="663" y="0" type="line"/>
      <point x="766" y="0" type="line"/>
      <point x="525" y="289" type="line"/>
      <point x="525" y="294" type="line"/>
      <point x="751" y="582" type="line"/>
      <point x="649" y="582" type="line"/>
      <point x="430" y="293" type="line"/>
    </contour>
  </outline>
</glyph>
<glyph name="ii-cy" format="2">
  <advance width="627"/>
  <unicode hex="0438"/>
  <outline>
    <contour>
      <point x="99" y="0" type="line"/>
      <point x="205" y="0" type="line"/>
      <point x="462" y="491" type="line"/>
      <point x="466" y="491" type="line"/>
      <point x="456" y="0" type="line"/>
      <point x="539" y="0" type="line"/>
      <point x="539" y="582" type="line"/>
      <point x="433" y="582" type="line"/>
      <point x="177" y="91" type="line"/>
      <point x="172" y="91" type="line"/>
      <point x="182" y="582" type="line"/>
      <point x="99" y="582" type="line"/>
    </contour>
  </outline>
</glyph>
<glyph name="el-cy" format="2">
  <advance width="573"/>
  <unicode hex="043B"/>
  <outline>
    <contour>
      <point x="8" y="-13" type="line"/>
      <point x="16" y="-13.0"/>
      <point x="23" y="-13.0"/>
      <point x="31" y="-13" type="curve" smooth="yes"/>
      <point x="125" y="-13"/>
      <point x="165" y="46"/>
      <point x="173" y="145" type="curve" smooth="yes"/>
      <point x="204" y="510" type="line"/>
      <point x="400" y="510" type="line"/>
      <point x="403" y="275" type="line"/>
      <point x="400" y="0" type="line"/>
      <point x="483" y="0" type="line"/>
      <point x="483" y="582" type="line"/>
      <point x="127" y="582" type="line"/>
      <point x="100" y="216" type="line" smooth="yes"/>
      <point x="91" y="93"/>
      <point x="77" y="80"/>
      <point x="59" y="68" type="curve" smooth="yes"/>
      <point x="42" y="57"/>
      <point x="16" y="53"/>
      <point x="-3" y="52" type="curve"/>
    </contour>
  </outline>
</glyph>
<glyph name="em-cy" format="2">
  <advance width="738"/>
  <unicode hex="043C"/>
  <outline>
    <contour>
      <point x="84" y="0" type="line"/>
      <point x="168" y="0" type="line"/>
      <point x="176" y="498" type="line"/>
      <point x="182" y="498" type="line"/>
      <point x="318" y="98" type="line"/>
      <point x="419" y="98" type="line"/>
      <point x="556" y="498" type="line"/>
      <point x="562" y="498" type="line"/>
      <point x="570" y="0" type="line"/>
      <point x="654" y="0" type="line"/>
      <point x="630" y="582" type="line"/>
      <point x="509" y="582" type="line"/>
      <point x="371" y="177" type="line"/>
      <point x="366" y="177" type="line"/>
      <point x="229" y="582" type="line"/>
      <point x="108" y="582" type="line"/>
    </contour>
  </outline>
</glyph>
<glyph name="te-cy" format="2">
  <advance width="466"/>
  <unicode hex="0442"/>
  <outline>
    <contour>
      <point x="194" y="0" type="line"/>
      <point x="277" y="0" type="line"/>
      <point x="277" y="582" type="line"/>
      <point x="194" y="582" type="line"/>
    </contour>
    <contour>
      <point x="2" y="511" type="line"/>
      <point x="194" y="512" type="line"/>
      <point x="273" y="512" type="line"/>
      <point x="464" y="511" type="line"/>
      <point x="464" y="583" type="line"/>
      <point x="2" y="583" type="line"/>
    </contour>
  </outline>
</glyph>
<glyph name="ef-cy" format="2">
  <advance width="745"/>
  <unicode hex="0444"/>
  <outline>
    <contour>
      <point x="372" y="-13" type="curve" smooth="yes"/>
      <point x="550" y="-13"/>
      <point x="666" y="56"/>
      <point x="666" y="292" type="curve" smooth="yes"/>
      <point x="666" y="527"/>
      <point x="550" y="595"/>
      <point x="372" y="595" type="curve" smooth="yes"/>
      <point x="195" y="595"/>
      <point x="79" y="527"/>
      <point x="79" y="292" type="curve" smooth="yes"/>
      <point x="79" y="56"/>
      <point x="195" y="-13"/>
    </contour>
    <contour>
      <point x="326" y="-182" type="line"/>
      <point x="409" y="-182" type="line"/>
      <point x="404" y="310" type="line"/>
      <point x="409" y="754" type="line"/>
      <point x="326" y="754" type="line"/>
      <point x="330" y="240" type="line"/>
    </contour>
    <contour>
      <point x="372" y="60" type="curve" smooth="yes"/>
      <point x="209" y="60"/>
      <point x="163" y="106"/>
      <point x="163" y="289" type="curve" smooth="yes"/>
      <point x="163" y="476"/>
      <point x="209" y="523"/>
      <point x="372" y="523" type="curve" smooth="yes"/>
      <point x="536" y="523"/>
      <point x="582" y="476"/>
      <point x="582" y="289" type="curve" smooth="yes"/>
      <point x="582" y="106"/>
      <point x="536" y="60"/>
    </contour>
  </outline>
</glyph>
<glyph name="iu-cy" format="2">
  <advance width="816"/>
  <unicode hex="044E"/>
  <outline>
    <contour>
      <point x="516" y="-13" type="curve" smooth="yes"/>
      <point x="663" y="-13"/>
      <point x="746" y="96"/>
      <point x="746" y="289" type="curve" smooth="yes"/>
      <point x="746" y="485"/>
      <point x="682" y="595"/>
      <point x="516" y="595" type="curve" smooth="yes"/>
      <point x="379" y="595"/>
      <point x="287" y="498"/>
      <point x="287" y="290" type="curve" smooth="yes"/>
      <point x="287" y="97"/>
      <point x="369" y="-13"/>
    </contour>
    <contour>
      <point x="90" y="0" type="line"/>
      <point x="173" y="0" type="line"/>
      <point x="170" y="258" type="line"/>
      <point x="339" y="258" type="line"/>
      <point x="338" y="330" type="line"/>
      <point x="170" y="330" type="line"/>
      <point x="173" y="582" type="line"/>
      <point x="90" y="582" type="line"/>
    </contour>
    <contour>
      <point x="516" y="59" type="curve" smooth="yes"/>
      <point x="422" y="59"/>
      <point x="371" y="92"/>
      <point x="371" y="286" type="curve" smooth="yes"/>
      <point x="371" y="486"/>
      <point x="419" y="523"/>
      <point x="516" y="523" type="curve" smooth="yes"/>
      <point x="613" y="523"/>
      <point x="662" y="486"/>
      <point x="662" y="286" type="curve" smooth="yes"/>
      <point x="662" y="92"/>
      <point x="610" y="59"/>
    </contour>
  </outline>
</glyph>
<glyph name="ia-cy" format="2">
  <advance width="613"/>
  <unicode hex="044F"/>
  <guideline x="92" y="173" angle="90" identifier="Ca6u0ARlT8"/>
  <outline>
    <contour>
      <point x="90" y="0" type="line"/>
      <point x="187" y="0" type="line"/>
      <point x="350" y="283" type="line"/>
      <point x="369" y="253" type="line"/>
      <point x="209" y="253" type="line"/>
      <point x="271" y="285" type="line"/>
    </contour>
    <contour>
      <point x="440" y="0" type="line"/>
      <point x="523" y="0" type="line"/>
      <point x="518" y="279" type="line"/>
      <point x="520" y="582" type="line"/>
      <point x="502" y="584"/>
      <point x="389" y="595"/>
      <point x="310" y="595" type="curve" smooth="yes"/>
      <point x="194" y="595"/>
      <point x="92" y="561"/>
      <point x="92" y="411" type="curve" smooth="yes"/>
      <point x="92" y="270"/>
      <point x="175" y="226.0"/>
      <point x="279" y="226" type="curve" smooth="yes"/>
      <point x="335" y="226"/>
      <point x="400" y="229"/>
      <point x="440" y="234" type="curve"/>
    </contour>
    <contour>
      <point x="313" y="301" type="curve" smooth="yes"/>
      <point x="258" y="301"/>
      <point x="221" y="308"/>
      <point x="201" y="325" type="curve" smooth="yes"/>
      <point x="181" y="342"/>
      <point x="176" y="371"/>
      <point x="176" y="412" type="curve" smooth="yes"/>
      <point x="176" y="467"/>
      <point x="191" y="500"/>
      <point x="216" y="512" type="curve" smooth="yes"/>
      <point x="232" y="520"/>
      <point x="263" y="526"/>
      <point x="306" y="526" type="curve" smooth="yes"/>
      <point x="365" y="526"/>
      <point x="408" y="519"/>
      <point x="440" y="515" type="curve"/>
      <point x="440" y="310" type="line"/>
      <point x="397" y="305"/>
      <point x="352" y="301"/>
    </contour>
  </outline>
</glyph>
<glyph name="lje-cy" format="2">
  <advance width="873"/>
  <unicode hex="0459"/>
  <outline>
    <contour>
      <point x="8" y="-13" type="line"/>
      <point x="16" y="-13.0"/>
      <point x="23" y="-13.0"/>
      <point x="31" y="-13" type="curve" smooth="yes"/>
      <point x="125" y="-13"/>
      <point x="165" y="46"/>
      <point x="173" y="145" type="curve" smooth="yes"/>
      <point x="204" y="509" type="line"/>
      <point x="298" y="510" type="line"/>
      <point x="385" y="509" type="line"/>
      <point x="386" y="260" type="line"/>
      <point x="385" y="1" type="line"/>
      <point x="428" y="-7"/>
      <point x="508" y="-13"/>
      <point x="590" y="-13" type="curve" smooth="yes"/>
      <point x="745" y="-13"/>
      <point x="813" y="67"/>
      <point x="813" y="187" type="curve" smooth="yes"/>
      <point x="813" y="368"/>
      <point x="723" y="410"/>
      <point x="580" y="408" type="curve" smooth="yes"/>
      <point x="551" y="408"/>
      <point x="506" y="405"/>
      <point x="469" y="402" type="curve"/>
      <point x="469" y="582" type="line"/>
      <point x="127" y="582" type="line"/>
      <point x="100" y="216" type="line" smooth="yes"/>
      <point x="91" y="93"/>
      <point x="77" y="80"/>
      <point x="59" y="68" type="curve" smooth="yes"/>
      <point x="42" y="57"/>
      <point x="16" y="53"/>
      <point x="-3" y="52" type="curve"/>
    </contour>
    <contour>
      <point x="595" y="58" type="curve" smooth="yes"/>
      <point x="543" y="58"/>
      <point x="493" y="64"/>
      <point x="469" y="69" type="curve"/>
      <point x="469" y="327" type="line"/>
      <point x="496" y="331"/>
      <point x="545" y="337"/>
      <point x="600" y="337" type="curve" smooth="yes"/>
      <point x="652" y="337"/>
      <point x="684" y="334"/>
      <point x="700" y="318" type="curve" smooth="yes"/>
      <point x="723" y="295"/>
      <point x="729" y="239"/>
      <point x="729" y="179" type="curve" smooth="yes"/>
      <point x="729" y="107"/>
      <point x="710" y="84"/>
      <point x="695" y="74" type="curve" smooth="yes"/>
      <point x="682" y="65"/>
      <point x="643" y="58"/>
    </contour>
  </outline>
</glyph>
<glyph name="nje-cy" format="2">
  <advance width="903"/>
  <unicode hex="045A"/>
  <outline>
    <contour>
      <point x="90" y="0" type="line"/>
      <point x="173" y="0" type="line"/>
      <point x="172" y="294" type="line"/>
      <point x="173" y="582" type="line"/>
      <point x="90" y="582" type="line"/>
    </contour>
    <contour>
      <point x="97" y="266" type="line"/>
      <point x="314" y="267" type="line"/>
      <point x="493" y="266" type="line"/>
      <point x="493" y="338" type="line"/>
      <point x="97" y="338" type="line"/>
    </contour>
    <contour>
      <point x="657" y="-13" type="curve" smooth="yes"/>
      <point x="812" y="-13"/>
      <point x="880" y="67"/>
      <point x="880" y="187" type="curve" smooth="yes"/>
      <point x="880" y="368"/>
      <point x="790" y="410"/>
      <point x="647" y="408" type="curve" smooth="yes"/>
      <point x="618" y="408"/>
      <point x="573" y="405"/>
      <point x="536" y="402" type="curve"/>
      <point x="536" y="582" type="line"/>
      <point x="452" y="582" type="line"/>
      <point x="453" y="275" type="line"/>
      <point x="452" y="1" type="line"/>
      <point x="495" y="-7"/>
      <point x="575" y="-13"/>
    </contour>
    <contour>
      <point x="662" y="58" type="curve" smooth="yes"/>
      <point x="610" y="58"/>
      <point x="560" y="64"/>
      <point x="536" y="69" type="curve"/>
      <point x="536" y="327" type="line"/>
      <point x="563" y="331"/>
      <point x="612" y="337"/>
      <point x="667" y="337" type="curve" smooth="yes"/>
      <point x="719" y="337"/>
      <point x="751" y="334"/>
      <point x="767" y="318" type="curve" smooth="yes"/>
      <point x="790" y="295"/>
      <point x="796" y="239"/>
      <point x="796" y="179" type="curve" smooth="yes"/>
      <point x="796" y="107"/>
      <point x="777" y="84"/>
      <point x="762" y="74" type="curve" smooth="yes"/>
      <point x="749" y="65"/>
      <point x="710" y="58"/>
    </contour>
  </outline>
</glyph>
<glyph name="Izhitsa-cy" format="2">
  <advance width="519"/>
  <unicode hex="0474"/>
  <guideline x="392" y="621" angle="0" identifier="MDy2YjO61g"/>
  <outline>
    <contour>
      <point x="193" y="0" type="line"/>
      <point x="313" y="0" type="line"/>
      <point x="448" y="500" type="line"/>
      <point x="372" y="527" type="line"/>
      <point x="247" y="37" type="line"/>
      <point x="294" y="74" type="line"/>
      <point x="212" y="74" type="line"/>
      <point x="259" y="37" type="line"/>
      <point x="99" y="665" type="line"/>
      <point x="13" y="665" type="line"/>
    </contour>
    <contour>
      <point x="564" y="707" type="line"/>
      <point x="550" y="709"/>
      <point x="540" y="709"/>
      <point x="531" y="709" type="curve" smooth="yes"/>
      <point x="507" y="709"/>
      <point x="468" y="702"/>
      <point x="447" y="687" type="curve" smooth="yes"/>
      <point x="411" y="661"/>
      <point x="397" y="628"/>
      <point x="383" y="571" type="curve" smooth="yes"/>
      <point x="366" y="500" type="line"/>
      <point x="444" y="486" type="line"/>
      <point x="471" y="577" type="line" smooth="yes"/>
      <point x="484" y="621"/>
      <point x="498" y="631"/>
      <point x="524" y="638" type="curve" smooth="yes"/>
      <point x="535" y="641"/>
      <point x="544" y="641"/>
      <point x="558" y="641" type="curve"/>
    </contour>
  </outline>
</glyph>
<glyph name="izhitsa-cy" format="2">
  <advance width="517"/>
  <unicode hex="0475"/>
  <outline>
    <contour>
      <point x="510" y="530" type="curve"/>
      <point x="510" y="593" type="line"/>
      <point x="498" y="595"/>
      <point x="488" y="596"/>
      <point x="468" y="596" type="curve" smooth="yes"/>
      <point x="442" y="596"/>
      <point x="415" y="590"/>
      <point x="398" y="579" type="curve" smooth="yes"/>
      <point x="376" y="565"/>
      <point x="361" y="541"/>
      <point x="349" y="494" type="curve" smooth="yes"/>
      <point x="334" y="437"/>
      <point x="328" y="414"/>
      <point x="322" y="387" type="curve"/>
      <point x="396" y="366" type="line"/>
      <point x="405" y="396"/>
      <point x="414" y="431"/>
      <point x="429" y="484" type="curve" smooth="yes"/>
      <point x="437" y="512"/>
      <point x="451" y="530"/>
      <point x="487" y="530" type="curve" smooth="yes"/>
      <point x="493" y="530"/>
      <point x="501" y="530"/>
    </contour>
    <contour>
      <point x="408" y="408" type="line"/>
      <point x="336" y="444" type="line"/>
      <point x="231" y="34" type="line"/>
      <point x="278" y="71" type="line"/>
      <point x="196" y="71" type="line"/>
      <point x="243" y="34" type="line"/>
      <point x="103" y="582" type="line"/>
      <point x="14" y="582" type="line"/>
      <point x="183" y="0" type="line"/>
      <point x="291" y="0" type="line"/>
    </contour>
  </outline>
</glyph>
<glyph name="Chedescender-cy" format="2">
  <advance width="612"/>
  <unicode hex="04B6"/>
  <outline>
    <contour>
      <point x="492" y="-124" type="line"/>
      <point x="566" y="-124" type="line"/>
      <point x="566" y="74" type="line"/>
      <point x="469" y="74" type="line"/>
    </contour>
    <component base="Che-cy"/>
  </outline>
</glyph>
<glyph name="Shha-cy" format="2">
  <advance width="645"/>
  <unicode hex="04BA"/>
  <outline>
    <contour>
      <point x="189" y="708" type="line"/>
      <point x="105" y="708" type="line"/>
      <point x="105" y="0" type="line"/>
      <point x="189" y="0" type="line"/>
      <point x="189" y="353" type="line"/>
      <point x="206" y="360"/>
      <point x="282" y="382"/>
      <point x="354" y="382" type="curve" smooth="yes"/>
      <point x="399" y="382"/>
      <point x="428" y="381"/>
      <point x="446" y="365" type="curve" smooth="yes"/>
      <point x="469" y="344"/>
      <point x="474" y="301"/>
      <point x="474" y="223" type="curve" smooth="yes"/>
      <point x="474" y="0" type="line"/>
      <point x="558" y="0" type="line"/>
      <point x="558" y="252" type="line" smooth="yes"/>
      <point x="558" y="387"/>
      <point x="524" y="460"/>
      <point x="365" y="460" type="curve" smooth="yes"/>
      <point x="314" y="460"/>
      <point x="242" y="444"/>
      <point x="189" y="423" type="curve"/>
    </contour>
  </outline>
</glyph>
<glyph name="obarred-cy" format="2">
  <advance width="576"/>
  <unicode hex="04E9"/>
  <outline>
    <contour>
      <point x="79" y="255" type="line"/>
      <point x="286" y="256" type="line"/>
      <point x="495" y="255" type="line"/>
      <point x="495" y="328" type="line"/>
      <point x="79" y="328" type="line"/>
    </contour>
    <component base="o"/>
  </outline>
</glyph>
<glyph name="ihookabove" format="2">
  <advance width="295"/>
  <unicode hex="1EC9"/>
  <anchor x="148" y="0" name="bottom"/>
  <anchor x="187" y="10" name="ogonek"/>
  <anchor x="148" y="582" name="top"/>
  <outline>
    <contour>
      <point x="106" y="0" type="line"/>
      <point x="189" y="0" type="line"/>
      <point x="189" y="582" type="line"/>
      <point x="106" y="582" type="line"/>
    </contour>
    <contour>
      <point x="84" y="799" type="line"/>
      <point x="139" y="799" type="line" smooth="yes"/>
      <point x="159" y="799"/>
      <point x="166" y="791"/>
      <point x="166" y="774" type="curve" smooth="yes"/>
      <point x="166" y="755"/>
      <point x="152" y="738"/>
      <point x="109" y="700" type="curve"/>
      <point x="142" y="671" type="line"/>
      <point x="202" y="708"/>
      <point x="226" y="739"/>
      <point x="226" y="783" type="curve" smooth="yes"/>
      <point x="226" y="824"/>
      <point x="197" y="857"/>
      <point x="135" y="857" type="curve" smooth="yes"/>
      <point x="117" y="857"/>
      <point x="86" y="856"/>
      <point x="84" y="853" type="curve"/>
    </contour>
  </outline>
</glyph>
<glyph name="notequal" format="2">
  <advance width="600"/>
  <unicode hex="2260"/>
  <outline>
    <contour>
      <point x="52" y="335" type="line"/>
      <point x="566" y="335" type="line"/>
      <point x="566" y="407" type="line"/>
      <point x="52" y="407" type="line"/>
    </contour>
    <contour>
      <point x="52" y="179" type="line"/>
      <point x="566" y="179" type="line"/>
      <point x="566" y="251" type="line"/>
      <point x="52" y="251" type="line"/>
    </contour>
    <contour>
      <point x="149" y="31" type="line"/>
      <point x="231" y="31" type="line"/>
      <point x="353" y="292" type="line"/>
      <point x="471" y="547" type="line"/>
      <point x="390" y="547" type="line"/>
      <point x="288" y="320" type="line"/>
    </contour>
  </outline>
</glyph>
<glyph name="acutecomb.case" format="2">
  <outline>
    <contour>
      <point x="18" y="733" type="line"/>
      <point x="253" y="793" type="line"/>
      <point x="225" y="866" type="line"/>
      <point x="0" y="784" type="line"/>
    </contour>
  </outline>
</glyph>
<glyph name="brevecyrillic-cy" format="2">
  <advance width="308"/>
  <anchor x="154" y="636" name="_top"/>
  <anchor x="154" y="781" name="top"/>
  <outline>
    <contour>
      <point x="154" y="665" type="curve" smooth="yes"/>
      <point x="243" y="665"/>
      <point x="303" y="710"/>
      <point x="308" y="813" type="curve"/>
      <point x="256" y="815" type="line"/>
      <point x="251" y="771"/>
      <point x="230" y="743"/>
      <point x="154" y="743" type="curve" smooth="yes"/>
      <point x="88" y="743"/>
      <point x="67" y="771"/>
      <point x="62" y="815" type="curve"/>
      <point x="0" y="813" type="line"/>
      <point x="4" y="710"/>
      <point x="65" y="665"/>
    </contour>
  </outline>
</glyph>
<glyph name="circumflexcomb.case" format="2">
  <anchor x="147" y="695" name="_top"/>
  <anchor x="147" y="840" name="top"/>
  <outline>
    <contour>
      <point x="28" y="733" type="line"/>
      <point x="143" y="794" type="line"/>
      <point x="150" y="794" type="line"/>
      <point x="265" y="733" type="line"/>
      <point x="293" y="771" type="line"/>
      <point x="172" y="866" type="line"/>
      <point x="121" y="866" type="line"/>
      <point x="0" y="771" type="line"/>
    </contour>
  </outline>
</glyph>
<glyph name="hungarumlautcomb.case" format="2">
  <outline>
    <contour>
      <point x="53" y="740" type="line"/>
      <point x="248" y="829" type="line"/>
      <point x="208" y="887" type="line"/>
      <point x="27" y="787" type="line"/>
    </contour>
    <contour>
      <point x="262" y="740" type="line"/>
      <point x="451" y="813" type="line"/>
      <point x="412" y="876" type="line"/>
      <point x="237" y="786" type="line"/>
    </contour>
  </outline>
</glyph>
<glyph name="ringcomb.case" format="2">
  <outline>
    <contour>
      <point x="84" y="722" type="curve" smooth="yes"/>
      <point x="125" y="722"/>
      <point x="168" y="741"/>
      <point x="168" y="804" type="curve" smooth="yes"/>
      <point x="168" y="868"/>
      <point x="125" y="887"/>
      <point x="84" y="887" type="curve" smooth="yes"/>
      <point x="43" y="887"/>
      <point x="0" y="868"/>
      <point x="0" y="804" type="curve" smooth="yes"/>
      <point x="0" y="741"/>
      <point x="43" y="722"/>
    </contour>
    <contour>
      <point x="84" y="768" type="curve" smooth="yes"/>
      <point x="60" y="768"/>
      <point x="48" y="774"/>
      <point x="48" y="804" type="curve" smooth="yes"/>
      <point x="48" y="835"/>
      <point x="60" y="841"/>
      <point x="84" y="841" type="curve" smooth="yes"/>
      <point x="108" y="841"/>
      <point x="118" y="835"/>
      <point x="118" y="804" type="curve" smooth="yes"/>
      <point x="118" y="774"/>
      <point x="108" y="768"/>
    </contour>
  </outline>
</glyph>
